# xmcd CD database file
#
# Track frame offsets:
#	150
#	20682
#	40737
#	68405
#
# Disc length: 1195 seconds
#
# Revision: 1
# Processed by: cddbd v1.5.2PL0 Copyright (c) Steve Scherf et al.
# Submitted via: CDex 1.70beta2
#
DISCID=2804a904
DTITLE=Tha Blue Herb - Stilling, Still Dreaming
DYEAR=1999
DGENRE=Hip-Hop
TTITLE0=Shock-Shineの乱 (1 Premise)
TTITLE1=Raging Bull
TTITLE2=知恵の輪 (Third Hallucination Chaos)
TTITLE3=北風 (Wind For Win)
EXTD=YEAR: 1999
EXTT0=
EXTT1=
EXTT2=
EXTT3=
PLAYORDER=
